<svg width="44" height="44" viewBox="0 0 44 44" fill="none" xmlns="http://www.w3.org/2000/svg">
<path d="M23.9443 4.12499C23.4286 3.60944 22.7292 3.31982 22 3.31982C21.2708 3.31982 20.5715 3.60944 20.0558 4.12499L1.77653 22.4015C1.64869 22.5293 1.54728 22.6811 1.47809 22.8481C1.4089 23.0152 1.37329 23.1942 1.37329 23.375C1.37329 23.5558 1.4089 23.7348 1.47809 23.9018C1.54728 24.0689 1.64869 24.2206 1.77653 24.3485C2.03472 24.6067 2.38489 24.7517 2.75003 24.7517C2.93082 24.7517 3.10985 24.7161 3.27688 24.6469C3.44392 24.5777 3.59569 24.4763 3.72353 24.3485L22 6.06924L40.2765 24.3485C40.5347 24.6067 40.8849 24.7517 41.25 24.7517C41.6152 24.7517 41.9653 24.6067 42.2235 24.3485C42.4817 24.0903 42.6268 23.7401 42.6268 23.375C42.6268 23.0099 42.4817 22.6597 42.2235 22.4015L35.75 15.9307V6.87499C35.75 6.51031 35.6052 6.16058 35.3473 5.90272C35.0894 5.64485 34.7397 5.49999 34.375 5.49999H31.625C31.2604 5.49999 30.9106 5.64485 30.6528 5.90272C30.3949 6.16058 30.25 6.51031 30.25 6.87499V10.4307L23.9443 4.12499Z" fill="#FDE2F3"/>
<path d="M22.3667 10.7517L38.8667 27.2517V38.821C38.8667 39.915 38.4321 40.9642 37.6585 41.7378C36.8849 42.5114 35.8357 42.946 34.7417 42.946H9.9917C8.89768 42.946 7.84847 42.5114 7.07488 41.7378C6.3013 40.9642 5.8667 39.915 5.8667 38.821V27.2517L22.3667 10.7517Z" fill="#FDE2F3"/>
</svg>
