<svg width="38" height="35" viewBox="0 0 38 35" fill="none" xmlns="http://www.w3.org/2000/svg">
<g clip-path="url(#clip0_46067_52)">
<rect width="37" height="35" transform="translate(0.5)" fill="white"/>
<path d="M0.5 2.50688C0.5 1.12219 1.71637 0 3.21719 0H34.7828C36.2836 0 37.5 1.12219 37.5 2.50688V32.4931C37.5 33.8778 36.2836 35 34.7828 35H3.21719C1.71637 35 0.5 33.8778 0.5 32.4931V2.50688ZM11.9307 29.2994V13.4947H6.37838V29.2994H11.9307ZM9.15569 11.3356C11.0912 11.3356 12.2961 10.1238 12.2961 8.60563C12.2614 7.05469 11.0936 5.87563 9.19269 5.87563C7.29181 5.87563 6.05 7.05688 6.05 8.60563C6.05 10.1238 7.25481 11.3356 9.11869 11.3356H9.15569ZM20.5054 29.2994V20.4728C20.5054 20.0003 20.5424 19.5278 20.6904 19.1909C21.0905 18.2481 22.0039 17.2703 23.5394 17.2703C25.549 17.2703 26.3514 18.7184 26.3514 20.8447V29.2994H31.9037V20.2344C31.9037 15.3781 29.1657 13.1206 25.512 13.1206C22.5659 13.1206 21.2454 14.6519 20.5054 15.7303V15.785H20.4684L20.5054 15.7303V13.4947H14.9554C15.0248 14.9778 14.9554 29.2994 14.9554 29.2994H20.5054Z" fill="#3D3B40"/>
</g>
<defs>
<clipPath id="clip0_46067_52">
<rect width="37" height="35" fill="white" transform="translate(0.5)"/>
</clipPath>
</defs>
</svg>
