<svg width="35" height="35" viewBox="0 0 35 35" fill="none" xmlns="http://www.w3.org/2000/svg">
<g clip-path="url(#clip0_46067_54)">
<path d="M17.5 0C8.1075 0 0.5 7.83125 0.5 17.5C0.5 25.2437 5.36625 31.7844 12.1237 34.1031C12.9738 34.2563 13.2925 33.7312 13.2925 33.2719C13.2925 32.8562 13.2713 31.4781 13.2713 30.0125C9 30.8219 7.895 28.9406 7.555 27.9562C7.36375 27.4531 6.535 25.9 5.8125 25.4844C5.2175 25.1562 4.3675 24.3469 5.79125 24.325C7.13 24.3031 8.08625 25.5938 8.405 26.1187C9.935 28.7656 12.3788 28.0219 13.3563 27.5625C13.505 26.425 13.9512 25.6594 14.44 25.2219C10.6575 24.7844 6.705 23.275 6.705 16.5812C6.705 14.6781 7.36375 13.1031 8.4475 11.8781C8.2775 11.4406 7.6825 9.64688 8.6175 7.24062C8.6175 7.24062 10.0412 6.78125 13.2925 9.03438C14.6525 8.64062 16.0975 8.44375 17.5425 8.44375C18.9875 8.44375 20.4325 8.64062 21.7925 9.03438C25.0438 6.75938 26.4675 7.24062 26.4675 7.24062C27.4025 9.64688 26.8075 11.4406 26.6375 11.8781C27.7213 13.1031 28.38 14.6562 28.38 16.5812C28.38 23.2969 24.4062 24.7844 20.6238 25.2219C21.24 25.7687 21.7712 26.8188 21.7712 28.4594C21.7712 30.8 21.75 32.6812 21.75 33.2719C21.75 33.7312 22.0688 34.2781 22.9188 34.1031C26.2941 32.9312 29.2272 30.6986 31.3049 27.7201C33.3825 24.7415 34.5 21.1669 34.5 17.5C34.5 7.83125 26.8925 0 17.5 0Z" fill="#3D3B40"/>
</g>
<defs>
<clipPath id="clip0_46067_54">
<rect width="34" height="35" fill="white" transform="translate(0.5)"/>
</clipPath>
</defs>
</svg>
